<?xml version="1.0" standalone="no"?>
<!DOCTYPE svg PUBLIC "-//W3C//DTD SVG 20010904//EN"
 "http://www.w3.org/TR/2001/REC-SVG-20010904/DTD/svg10.dtd">
<svg version="1.0" xmlns="http://www.w3.org/2000/svg"
 width="1201.000000pt" height="1201.000000pt" viewBox="0 0 1201.000000 1201.000000"
 preserveAspectRatio="xMidYMid meet">
<metadata>
Created by potrace 1.11, written by Peter Selinger 2001-2013
</metadata>
<g transform="translate(0.000000,1201.000000) scale(0.100000,-0.100000)"
fill="#000000" stroke="none">
<path d="M5728 12005 c-2 -1 -59 -6 -127 -10 -67 -4 -133 -8 -145 -10 -19 -3
-129 -15 -181 -20 -33 -3 -118 -15 -145 -20 -14 -3 -38 -7 -55 -9 -76 -12
-103 -17 -150 -26 -27 -5 -64 -12 -81 -15 -58 -9 -290 -64 -399 -94 -750 -205
-1469 -558 -2065 -1015 -195 -149 -196 -150 -23 -65 168 84 255 120 423 176
97 32 255 76 319 88 295 59 487 82 716 89 104 3 165 -9 245 -46 116 -56 214
-181 246 -315 9 -40 12 -792 12 -3372 0 -1826 3 -3338 7 -3359 19 -116 141
-112 296 9 49 39 219 206 295 290 278 311 592 809 764 1214 73 170 152 399
166 480 3 17 10 50 15 75 6 24 13 65 17 90 4 25 7 1062 7 2305 0 2246 0 2260
-20 2335 -35 128 -10 203 85 251 83 42 145 49 305 35 119 -11 144 -16 213 -43
136 -55 256 -213 279 -367 3 -23 6 -920 6 -1993 1 -1884 1 -1953 19 -1953 10
0 62 12 116 26 383 102 624 250 835 514 55 69 147 203 147 215 0 3 10 22 23
43 44 71 99 213 160 417 19 63 64 265 72 325 3 25 10 72 15 105 12 76 18 131
25 221 3 40 7 89 10 110 2 22 9 95 15 164 6 69 13 145 15 170 3 25 7 77 10
115 3 39 8 86 10 105 2 19 6 62 9 95 6 69 18 199 21 235 3 31 15 126 20 160 2
14 7 50 10 80 6 50 49 324 59 376 2 12 7 37 10 55 3 19 8 45 11 59 3 14 10 48
15 75 6 28 13 61 16 75 3 14 7 36 10 50 46 227 152 527 270 762 32 65 40 89
31 96 -32 26 -348 168 -544 246 -312 122 -847 273 -1111 312 -20 3 -48 7 -62
10 -44 7 -144 23 -190 29 -25 3 -56 8 -70 10 -14 2 -50 6 -80 9 -30 3 -82 8
-115 11 -33 3 -85 8 -115 11 -63 5 -687 14 -692 9z"/>
<path d="M9442 10908 c-6 -7 -18 -33 -28 -58 -9 -25 -21 -50 -26 -56 -31 -41
-134 -384 -187 -624 -27 -124 -33 -154 -46 -232 -7 -39 -14 -80 -19 -103 -2
-11 -9 -56 -15 -100 -7 -44 -16 -102 -21 -130 -5 -27 -12 -72 -15 -100 -4 -27
-8 -63 -10 -80 -3 -16 -7 -52 -11 -80 -4 -27 -8 -61 -9 -75 -3 -27 -12 -103
-20 -162 -3 -21 -7 -57 -10 -80 -3 -24 -8 -54 -10 -68 -2 -14 -7 -45 -10 -70
-3 -25 -15 -101 -25 -170 -11 -69 -22 -143 -25 -165 -6 -36 -57 -322 -69 -385
-106 -546 -306 -1023 -557 -1322 -213 -254 -396 -400 -684 -545 l-109 -55 44
-24 c103 -55 276 -174 366 -252 126 -109 249 -239 329 -347 17 -22 38 -49 47
-59 39 -43 190 -279 257 -401 105 -192 232 -481 300 -683 11 -31 61 -176 111
-322 50 -146 113 -328 140 -405 53 -156 115 -324 135 -370 7 -16 28 -66 45
-110 17 -44 40 -98 50 -120 10 -22 33 -74 50 -115 113 -263 265 -518 419 -702
75 -90 86 -98 151 -124 39 -15 82 -38 97 -51 23 -22 25 -29 19 -71 -13 -93
-123 -214 -323 -354 -268 -188 -435 -238 -531 -161 -45 37 -119 132 -216 278
-128 194 -179 288 -322 590 -121 257 -263 665 -393 1130 -219 782 -362 1161
-541 1435 -126 193 -248 324 -440 474 -109 85 -309 189 -461 240 -59 20 -109
36 -111 36 -2 0 -4 -634 -4 -1409 0 -776 3 -1408 6 -1406 10 6 236 33 330 40
47 3 105 8 130 11 97 11 215 6 253 -10 131 -56 180 -216 128 -419 -39 -149
-115 -271 -231 -370 -63 -54 -116 -65 -322 -71 -148 -5 -298 -14 -304 -20 -1
0 -5 -50 -9 -109 -4 -60 -8 -125 -10 -145 -6 -65 -17 -176 -21 -207 -2 -16 -6
-55 -9 -85 -4 -30 -8 -66 -11 -80 -2 -14 -6 -45 -10 -70 -68 -532 -204 -994
-376 -1279 -21 -34 -38 -67 -38 -71 0 -4 -7 -13 -15 -20 -8 -7 -15 -17 -15
-22 0 -14 287 5 495 32 39 5 93 12 120 15 28 3 59 8 70 10 11 3 36 7 55 10 19
2 46 7 60 10 13 2 42 7 64 11 22 3 43 7 46 9 3 2 23 6 45 9 133 21 446 103
660 172 527 171 964 380 1469 704 45 28 171 115 176 120 3 3 39 30 80 60 81
59 194 147 251 195 19 16 60 50 89 75 96 80 171 151 350 330 238 238 353 369
545 625 241 321 425 621 593 967 60 125 92 195 148 325 97 224 219 592 288
875 49 201 108 510 121 637 3 29 7 56 9 60 2 3 7 46 11 94 3 48 8 97 10 108
12 59 19 276 19 534 1 322 -5 428 -35 685 -6 52 -12 109 -14 127 -2 17 -8 57
-14 90 -5 32 -12 75 -16 96 -3 21 -12 71 -20 110 -8 40 -16 83 -19 97 -24 132
-48 226 -117 470 -152 539 -421 1123 -737 1605 -63 97 -201 295 -212 305 -3 3
-34 43 -70 90 -72 94 -71 94 -161 200 -292 345 -625 658 -989 930 -69 51 -130
97 -136 102 -7 5 -16 3 -22 -4z"/>
<path d="M3335 10190 c-165 -35 -230 -52 -342 -91 -275 -97 -499 -232 -695
-418 -174 -166 -292 -329 -408 -566 -63 -128 -125 -288 -151 -390 -19 -75 -47
-210 -54 -255 -3 -25 -8 -56 -10 -70 -2 -14 -7 -52 -10 -85 -3 -33 -8 -82 -11
-110 -3 -27 -5 -129 -6 -225 -1 -301 22 -471 96 -722 80 -273 205 -513 339
-652 97 -99 137 -112 240 -76 129 45 170 14 168 -129 -1 -42 -3 -83 -5 -91
-21 -103 -21 -100 -31 -125 -60 -151 -116 -243 -199 -325 -106 -105 -236 -165
-356 -164 -81 1 -94 4 -150 33 -108 55 -298 234 -405 380 -132 179 -277 438
-335 597 -64 174 -83 231 -119 355 -22 75 -49 186 -60 245 -18 100 -23 131
-36 226 -26 188 -26 736 0 866 2 13 7 53 10 89 3 37 8 69 9 72 2 3 7 29 10 56
25 186 121 513 220 748 9 20 14 37 12 37 -7 0 -185 -281 -251 -395 -128 -221
-283 -541 -384 -791 -44 -109 -161 -453 -187 -549 -27 -102 -76 -289 -80 -308
-2 -10 -5 -26 -8 -35 -3 -9 -8 -30 -11 -47 -6 -34 -12 -69 -20 -105 -14 -65
-34 -178 -40 -230 -3 -19 -7 -44 -10 -55 -2 -11 -7 -47 -11 -79 -3 -33 -8 -69
-10 -80 -2 -12 -7 -52 -10 -91 -3 -38 -7 -77 -9 -85 -26 -99 -26 -867 0 -1085
2 -16 6 -59 10 -95 8 -91 44 -334 66 -450 77 -410 230 -921 374 -1245 7 -16
30 -68 50 -115 87 -198 275 -552 380 -715 17 -27 49 -77 70 -110 111 -173 363
-509 485 -645 18 -19 57 -64 88 -100 119 -135 393 -402 557 -541 22 -19 42
-36 45 -39 17 -17 210 -168 290 -227 315 -231 683 -450 1030 -611 112 -53 422
-182 435 -182 4 0 4 12 1 27 -57 278 -30 626 68 887 108 286 345 598 621 817
79 63 238 174 305 213 96 56 340 175 455 220 66 27 134 55 150 62 17 7 110 40
207 71 l178 58 0 825 0 825 -32 -50 c-68 -110 -271 -410 -288 -425 -3 -3 -27
-34 -54 -70 -101 -133 -286 -329 -412 -437 -414 -354 -859 -473 -1190 -318
-239 113 -407 371 -440 675 -3 25 -7 59 -9 75 -2 17 -4 1455 -4 3198 -1 3010
-2 3167 -18 3166 -10 0 -58 -9 -108 -19z"/>
<path d="M5825 1917 c-108 -35 -285 -105 -345 -136 -441 -227 -656 -478 -724
-846 -20 -109 -16 -310 9 -390 49 -163 179 -262 353 -270 213 -9 375 117 503
390 37 79 103 263 113 315 2 14 7 32 10 40 3 8 7 26 10 40 2 14 13 72 24 130
11 58 23 130 27 160 3 30 8 62 10 70 2 8 7 38 10 65 9 86 16 139 20 175 3 19
7 69 11 110 14 172 16 163 -31 147z"/>
</g>
</svg>
