<?xml version="1.0" encoding="UTF-8" standalone="no"?>
<!-- Created with Inkscape (http://www.inkscape.org/) -->

<svg
   xmlns:dc="http://purl.org/dc/elements/1.1/"
   xmlns:cc="http://creativecommons.org/ns#"
   xmlns:rdf="http://www.w3.org/1999/02/22-rdf-syntax-ns#"
   xmlns:svg="http://www.w3.org/2000/svg"
   xmlns="http://www.w3.org/2000/svg"
   xmlns:xlink="http://www.w3.org/1999/xlink"
   xmlns:sodipodi="http://sodipodi.sourceforge.net/DTD/sodipodi-0.dtd"
   xmlns:inkscape="http://www.inkscape.org/namespaces/inkscape"
   width="317.6478mm"
   height="317.44263mm"
   viewBox="0 0 317.6478 317.44263"
   version="1.1"
   id="svg905"
   inkscape:version="0.92.4 (5da689c313, 2019-01-14)"
   sodipodi:docname="logo.svg">
  <defs
     id="defs899">
    <linearGradient
       inkscape:collect="always"
       xlink:href="#linearGradient8549"
       id="linearGradient893"
       x1="95.176346"
       y1="42.999977"
       x2="412.82364"
       y2="42.999977"
       gradientUnits="userSpaceOnUse"
       gradientTransform="translate(-159.40453,144.81268)" />
    <linearGradient
       x1="0"
       y1="0"
       x2="1"
       y2="0"
       gradientUnits="userSpaceOnUse"
       gradientTransform="matrix(141.714,1.46654,1.46654,-141.714,6662.63,9180.02)"
       spreadMethod="pad"
       id="linearGradient8549">
      <stop
         style="stop-opacity:1;stop-color:#a57d24"
         offset="0"
         id="stop8537" />
      <stop
         style="stop-opacity:1;stop-color:#f1dd80"
         offset="0.30049741"
         id="stop8539" />
      <stop
         style="stop-opacity:1;stop-color:#f1dd80"
         offset="0.328041"
         id="stop8541" />
      <stop
         style="stop-opacity:1;stop-color:#fbf2a8"
         offset="0.52404"
         id="stop8543" />
      <stop
         style="stop-opacity:1;stop-color:#f1dd80"
         offset="0.729818"
         id="stop8545" />
      <stop
         style="stop-opacity:1;stop-color:#a57d24"
         offset="1"
         id="stop8547" />
    </linearGradient>
  </defs>
  <sodipodi:namedview
     id="base"
     pagecolor="#ffffff"
     bordercolor="#666666"
     borderopacity="1.0"
     inkscape:pageopacity="0.0"
     inkscape:pageshadow="2"
     inkscape:zoom="0.28809077"
     inkscape:cx="587.41493"
     inkscape:cy="593.44277"
     inkscape:document-units="mm"
     inkscape:current-layer="layer1"
     showgrid="false"
     fit-margin-top="0"
     fit-margin-left="0"
     fit-margin-right="0"
     fit-margin-bottom="0"
     inkscape:window-width="1366"
     inkscape:window-height="745"
     inkscape:window-x="-8"
     inkscape:window-y="-8"
     inkscape:window-maximized="1" />
  <metadata
     id="metadata902">
    <rdf:RDF>
      <cc:Work
         rdf:about="">
        <dc:format>image/svg+xml</dc:format>
        <dc:type
           rdf:resource="http://purl.org/dc/dcmitype/StillImage" />
        <dc:title></dc:title>
      </cc:Work>
    </rdf:RDF>
  </metadata>
  <g
     inkscape:label="Layer 1"
     inkscape:groupmode="layer"
     id="layer1"
     transform="translate(64.22843,-28.988763)">
    <path
       inkscape:connector-curvature="0"
       style="font-style:normal;font-variant:normal;font-weight:normal;font-stretch:normal;font-size:214.58062744px;line-height:1.25;font-family:'Grand Hotel';-inkscape-font-specification:'Grand Hotel, Normal';font-variant-ligatures:normal;font-variant-caps:normal;font-variant-numeric:normal;font-feature-settings:normal;text-align:start;letter-spacing:0px;word-spacing:0px;writing-mode:lr-tb;text-anchor:start;opacity:1;fill:url(#linearGradient893);fill-opacity:1;stroke:none;stroke-width:16.17564774;stroke-miterlimit:4;stroke-dasharray:none"
       d="M 94.595475,28.988763 A 158.82365,158.82365 0 0 0 -6.5688958,65.543638 c 2.704153,-1.585318 5.469025,-2.999055 8.296135,-4.235919 6.092852,-2.665616 12.2799688,-4.569383 18.5632088,-5.711796 6.283259,-1.237616 12.281157,-1.855699 17.993217,-1.855699 1.52321,0 2.99911,0.333018 4.42712,0.999424 1.42801,0.571208 2.66521,1.427458 3.71243,2.569868 1.04721,1.047205 1.90451,2.332887 2.57091,3.856093 0.66639,1.523214 0.99942,3.140874 0.99942,4.854485 V 239.52423 c 0,1.90402 0.28613,3.09327 0.85731,3.56928 0.66642,0.38081 1.28451,0.57105 1.8557,0.57105 1.42804,0 3.37971,-0.99907 5.85494,-2.99829 2.47521,-2.09441 5.14146,-4.80753 7.99745,-8.13956 2.95122,-3.4272 5.90198,-7.33062 8.8532,-11.70987 2.95124,-4.47443 5.61639,-9.09133 7.99641,-13.85134 2.38001,-4.76004 4.33174,-9.52024 5.85494,-14.28027 1.52321,-4.76003 2.28514,-9.23464 2.28514,-13.42347 V 76.981701 68.1626 c 0,-2.760824 -0.19074,-4.759963 -0.57155,-5.997567 -0.38079,-1.23761 -0.57102,-2.379967 -0.57102,-3.427182 0,-1.040578 0.38429,-1.95361 1.14257,-2.741433 v -0.0067 c 0.003,-7.94e-4 0.004,-7.94e-4 0.007,-0.0016 0.28061,-0.290184 0.60846,-0.564803 0.99218,-0.82062 1.5232,-0.952008 3.33158,-1.427303 5.42603,-1.427303 1.55468,0 3.016045,0.132803 4.385265,0.396359 0.0689,-2.01e-4 0.11358,-0.0031 0.18449,-0.0031 1.52324,0 2.99911,0.333017 4.42712,0.999421 1.42798,0.5712 2.6652,1.428492 3.71242,2.570902 1.0472,1.047208 1.90453,2.332368 2.57091,3.85558 0.18102,0.413763 0.33525,0.834641 0.46717,1.262454 0.44887,1.22033 0.6754,2.52376 0.6754,3.912423 V 169.34295 c 9.35411,-1.90882 16.54329,-5.22968 21.56301,-9.96528 5.04566,-4.76003 8.75782,-10.42443 11.13782,-16.99328 2.38004,-6.66404 3.90385,-13.99456 4.57029,-21.99142 0.76157,-8.09205 1.52299,-16.46957 2.28459,-25.132832 0.85683,-8.758459 2.23681,-17.516938 4.14083,-26.275398 1.6774,-7.799994 4.46452,-15.34116 8.35866,-22.623941 A 158.82365,158.82365 0 0 0 94.595475,28.988763 Z M 185.6323,57.762199 c -1.43042,2.857569 -2.66132,5.883897 -3.69073,9.080585 -1.71363,5.521637 -3.09417,11.329348 -4.14136,17.422192 -1.0472,5.997644 -1.95139,12.185285 -2.71302,18.563724 -0.76157,6.37845 -1.66579,12.7094 -2.71301,18.99264 -0.95199,6.18804 -2.23768,12.28031 -3.85609,18.27795 -1.6184,5.90244 -3.80777,11.47199 -6.5686,16.70802 -2.76082,5.14084 -6.33071,9.80567 -10.70992,13.9945 -4.28403,4.18882 -9.66285,7.7113 -16.13649,10.56731 6.85446,3.71283 12.51884,8.18744 16.99329,13.42347 4.56961,5.23604 8.42509,10.94786 11.56673,17.13591 3.14163,6.09283 5.80733,12.51916 7.99692,19.27842 2.28481,6.66406 4.56954,13.2806 6.85435,19.84941 2.38003,6.56886 4.9983,12.89979 7.85431,18.99266 2.85602,6.18803 6.52127,11.75708 10.99572,16.70749 0.38081,0.47604 0.85659,0.80904 1.42782,0.99944 0.66638,0.28561 1.28556,0.52377 1.85671,0.71416 0.66644,0.28562 1.18965,0.57065 1.57047,0.85627 0.47598,0.38079 0.71416,0.85715 0.71416,1.42835 0,1.42804 -0.80936,2.99877 -2.42776,4.71237 -1.61841,1.80882 -3.57013,3.4749 -5.85494,4.99813 -2.18959,1.61841 -4.37896,2.95098 -6.5686,3.99823 -2.18959,1.04722 -3.85575,1.57146 -4.99814,1.57146 -1.42804,0 -2.71317,-0.61909 -3.85559,-1.85674 -4.09363,-5.14082 -7.52073,-10.47273 -10.28152,-15.99435 -2.76085,-5.42642 -5.1889,-10.94753 -7.28329,-16.56437 -1.99925,-5.61684 -3.76068,-11.1859 -5.28392,-16.70751 -1.52319,-5.61684 -3.09291,-10.99564 -4.71132,-16.13649 -1.5232,-5.23603 -3.28472,-10.18696 -5.28391,-14.8518 -1.90402,-4.66482 -4.28411,-8.90127 -7.14013,-12.70929 -2.85601,-3.90324 -6.33108,-7.28239 -10.42468,-10.13841 -3.96476,-2.92636 -8.77327,-5.19608 -14.42292,-6.81199 v 65.68022 8.85373 c 2.76085,-0.47599 5.42653,-0.80902 7.99695,-0.99941 2.6656,-0.19043 5.14054,-0.38061 7.42538,-0.57103 2.28481,-0.0952 3.99835,0.38008 5.14077,1.4273 1.23759,1.04719 1.99901,2.42773 2.28463,4.14136 0.28559,1.7136 0.19073,3.57045 -0.28528,5.56966 -0.47598,1.99922 -1.2374,3.85557 -2.2846,5.56919 -1.04722,1.80883 -2.33238,3.33217 -3.85558,4.56975 -1.42801,1.23759 -2.99879,1.85621 -4.71237,1.85621 -2.18966,0 -4.28413,0.0478 -6.28335,0.14314 -1.90402,0.0952 -3.80828,0.238 -5.7123,0.42839 -0.47601,8.47289 -1.42817,16.89783 -2.85618,25.27546 -1.33278,8.47289 -3.56957,16.089 -6.7112,22.84823 -1.21918,2.66004 -2.60534,5.11672 -4.15427,7.37526 A 158.82365,158.82365 0 0 0 253.41937,187.81266 158.82365,158.82365 0 0 0 185.6323,57.762199 Z M 27.287955,76.587926 c -6.568842,0.856806 -12.803902,2.712633 -18.7063538,5.568651 -5.80725,2.856021 -10.900995,6.759446 -15.280203,11.709879 -4.2840412,4.950437 -7.7111122,10.948374 -10.2815422,17.993214 -2.475201,7.04485 -3.712954,15.18472 -3.712954,24.41918 0,5.90244 0.619125,11.23331 1.856735,15.99334 1.23762,4.66484 2.712993,8.66363 4.426604,11.99565 1.713608,3.23682 3.427716,5.75972 5.1412882,7.56853 1.713619,1.80881 3.046185,2.71301 3.998206,2.71301 0.856779,0 1.665642,-0.19022 2.427242,-0.57102 0.76163,-0.3808 1.523006,-0.57154 2.28461404,-0.57154 1.523212,0 2.28564796,1.19031 2.28564796,3.57033 0,3.04641 -0.714483,5.99718 -2.14250296,8.8532 -1.33282004,2.76082 -3.04637304,5.04607 -5.14077204,6.85488 -2.094431,1.71361 -4.379161,2.80855 -6.8543622,3.28455 -2.47523,0.47601 -4.759963,-0.0478 -6.854362,-1.57096 -2.57043,-1.71362 -5.331468,-4.33188 -8.282699,-7.8543 -2.856019,-3.52243 -5.521191,-7.75887 -7.99641,-12.7093 -2.38003,-5.04564 -4.379685,-10.71056 -5.998086,-16.9938 -1.523219,-6.28324 -2.284613,-13.13692 -2.284613,-20.56257 0,-10.28167 1.237742,-19.46853 3.712951,-27.56059 1.237985,-4.09484 2.678366,-7.92759 4.321183,-11.498519 A 158.82365,158.82365 0 0 0 -64.22843,187.81266 158.82365,158.82365 0 0 0 39.205575,336.45682 c -0.61393,-2.83583 -0.92191,-5.82454 -0.92191,-8.96742 0,-7.42566 1.52334,-13.99476 4.56975,-19.7068 3.04641,-5.71204 7.04523,-10.75732 11.99565,-15.13655 4.95042,-4.37925 10.61432,-8.09241 16.99276,-11.13885 6.37845,-2.95122 12.94757,-5.42621 19.70681,-7.4254 v -3.28454 -12.17289 -28.24015 c -3.04643,5.04563 -6.2833,9.80636 -9.71052,14.28078 -3.42719,4.37925 -7.04457,8.23471 -10.85257,11.56674 -3.71283,3.23681 -7.56831,5.75971 -11.56674,7.56854 -3.99843,1.90402 -8.09259,2.85562 -12.28142,2.85562 -2.09442,0 -4.33119,-0.42836 -6.71122,-1.28519 -2.28482,-0.85677 -4.42676,-2.28528 -6.425958,-4.28448 -1.904022,-1.90402 -3.52274,-4.47386 -4.85552,-7.71064 -1.23761,-3.23684 -1.856732,-7.28253 -1.856732,-12.13776 z m 63.68862,219.056914 c -9.71044,2.95119 -17.13587,7.04485 -22.27668,12.2809 -5.04566,5.33125 -7.56853,11.66222 -7.56853,18.99264 0,4.47445 0.99957,7.66336 2.99878,9.56738 2.09443,1.99922 4.61729,2.99876 7.56854,2.99876 3.23679,0 5.99735,-1.1903 8.28218,-3.57031 2.28481,-2.38001 4.18856,-5.61636 5.71179,-9.71 1.52321,-3.99843 2.66661,-8.66375 3.42822,-13.995 0.8568,-5.23605 1.47489,-10.75714 1.8557,-16.56437 z"
       id="path17320" />
  </g>
</svg>
